<?xml version="1.0" standalone="no"?>
<!DOCTYPE svg PUBLIC "-//W3C//DTD SVG 20010904//EN"
 "http://www.w3.org/TR/2001/REC-SVG-20010904/DTD/svg10.dtd">
<svg version="1.0" xmlns="http://www.w3.org/2000/svg"
 width="500.000000pt" height="500.000000pt" viewBox="0 0 500.000000 500.000000"
 preserveAspectRatio="xMidYMid meet">
<metadata>
Created by potrace 1.11, written by Peter Selinger 2001-2013
</metadata>
<g transform="translate(0.000000,500.000000) scale(0.100000,-0.100000)"
fill="#000000" stroke="none">
<path d="M2610 4348 c-132 -46 -219 -122 -274 -237 -29 -63 -31 -72 -31 -186
0 -111 2 -124 28 -177 31 -64 91 -128 141 -152 l35 -16 -44 -83 c-54 -102 -91
-220 -106 -335 l-11 -89 -155 -7 c-246 -10 -428 -44 -577 -106 l-69 -29 -19
24 c-11 14 -26 25 -34 25 -32 0 -73 -31 -89 -68 -15 -34 -23 -40 -81 -56 -227
-65 -433 -245 -529 -463 -95 -212 -92 -503 7 -738 17 -38 33 -83 35 -99 l6
-30 -28 22 c-18 14 -42 22 -67 22 -81 0 -149 -49 -224 -162 -39 -58 -55 -73
-98 -92 -40 -18 -57 -32 -70 -60 -17 -35 -16 -39 0 -83 17 -45 65 -101 115
-134 24 -16 24 -17 7 -53 -10 -20 -35 -55 -56 -79 -22 -23 -44 -52 -51 -64
-26 -51 -5 -142 47 -196 110 -117 355 -97 497 40 l46 44 57 -35 c211 -127 425
-188 573 -165 88 13 176 59 232 118 44 46 48 49 86 44 54 -7 94 11 140 63 43
49 61 100 61 171 l0 49 59 -4 c49 -4 66 0 95 18 20 12 36 25 36 29 0 5 57 11
128 14 134 6 194 15 304 49 l68 21 47 -53 c27 -29 56 -73 66 -98 19 -48 46
-91 82 -132 12 -14 32 -56 44 -95 42 -139 88 -187 157 -165 39 13 63 43 66 83
1 15 5 27 8 27 3 0 18 -16 33 -36 73 -91 162 -120 212 -69 30 29 34 95 10 152
-8 20 -13 38 -11 40 2 2 30 -3 61 -13 78 -22 162 -15 187 16 10 12 18 38 18
58 0 50 -64 110 -159 147 -39 16 -71 29 -71 30 0 1 21 17 48 34 59 41 83 73
89 119 5 45 -26 102 -56 102 -11 0 -43 -9 -71 -20 -85 -33 -90 -31 -171 75
l-72 96 34 29 c19 16 36 29 39 30 18 1 471 -237 496 -261 17 -17 46 -59 64
-95 36 -73 86 -114 136 -114 45 0 84 47 84 101 0 21 2 39 5 39 2 0 30 -7 62
-15 157 -41 235 9 168 108 l-26 37 65 0 c46 0 69 5 81 16 25 25 15 66 -23 89
-24 15 -31 26 -28 43 2 13 -4 33 -14 45 -15 18 -32 22 -111 28 -52 4 -119 14
-149 22 -30 9 -86 23 -123 33 -91 22 -165 78 -268 201 -79 95 -135 192 -141
242 -3 23 1 25 72 37 350 56 641 239 819 515 72 110 116 217 143 349 34 162
12 383 -52 528 l-21 47 33 25 c64 49 116 108 144 166 40 81 46 210 14 303 -42
127 -129 223 -250 280 -48 22 -68 26 -160 26 -96 0 -110 -2 -158 -28 -69 -36
-125 -95 -159 -168 -32 -68 -22 -66 -156 -20 -117 41 -245 61 -394 61 -162 0
-233 -10 -431 -62 -9 -2 -20 17 -32 54 -35 111 -117 210 -209 251 -71 31 -180
33 -261 5z m256 -68 c33 -15 77 -44 97 -65 41 -42 84 -124 89 -167 3 -25 -3
-31 -59 -57 l-62 -30 -25 42 c-62 105 -141 141 -222 99 -46 -24 -85 -63 -109
-111 -23 -45 -17 -139 13 -205 29 -65 37 -54 12 17 -37 106 -17 198 56 253 30
23 48 29 88 29 61 0 101 -25 146 -90 l30 -43 -43 -25 c-97 -58 -220 -164 -303
-261 -41 -48 -41 -48 -70 -33 -44 23 -103 86 -132 142 -24 45 -27 61 -27 155
0 97 2 110 30 164 56 110 151 186 267 211 81 17 148 10 224 -25z m1701 -99
c228 -107 303 -422 144 -604 -38 -43 -103 -86 -108 -70 -2 5 -16 30 -32 54
l-27 44 24 53 c13 29 29 81 35 116 10 58 9 67 -14 112 -41 83 -155 135 -229
104 -17 -7 -48 -33 -69 -57 l-39 -44 -60 38 c-33 21 -67 43 -76 48 -14 9 -14
14 3 52 25 54 95 129 143 154 93 48 202 47 305 0z m-852 -136 c551 -83 948
-500 947 -995 -1 -494 -397 -913 -939 -995 -458 -69 -920 121 -1156 477 -118
177 -162 339 -155 557 6 153 29 244 98 381 206 409 709 650 1205 575z m791
-110 c52 -40 68 -84 61 -170 -4 -38 -12 -87 -18 -107 l-12 -37 -106 108 c-58
60 -119 118 -135 130 l-29 21 24 27 c66 71 145 82 215 28z m-2156 -959 c0 -29
11 -98 25 -152 76 -301 280 -541 591 -698 162 -82 324 -123 522 -133 l114 -6
-7 -46 c-19 -140 -95 -283 -226 -425 l-63 -68 -19 23 c-30 36 -86 162 -122
272 -36 109 -51 135 -40 67 15 -90 57 -217 105 -316 47 -98 141 -235 193 -283
25 -23 30 -23 84 -13 32 6 70 14 86 18 36 8 57 -10 57 -50 0 -43 -30 -88 -90
-133 -27 -20 -50 -40 -50 -44 0 -4 15 -10 33 -14 90 -19 207 -99 207 -142 0
-8 -13 -28 -29 -44 -25 -25 -37 -29 -83 -29 -29 1 -78 10 -108 21 -30 11 -62
22 -71 25 -13 4 -10 -7 13 -53 15 -32 31 -75 35 -95 12 -74 -45 -110 -116 -74
-30 16 -101 90 -122 127 -13 23 -14 22 -20 -29 -11 -81 -48 -111 -106 -87 -38
16 -64 71 -73 154 -6 59 -9 66 -44 94 -26 21 -52 59 -82 120 -24 49 -57 104
-73 122 -47 54 -101 158 -143 278 -41 116 -98 334 -98 374 0 13 -4 23 -10 23
-36 0 23 -294 104 -514 20 -54 36 -102 36 -106 0 -12 -91 -47 -156 -60 -36 -7
-119 -10 -205 -8 -176 4 -193 11 -305 122 -127 127 -257 339 -367 596 -65 155
-96 249 -134 420 -20 92 -35 256 -40 446 -7 258 -12 244 109 288 136 51 347
82 566 85 l122 1 0 -54z m-845 -50 c15 -22 15 -32 1 -106 -21 -106 -21 -330
-1 -469 67 -457 256 -890 493 -1128 71 -70 212 -173 239 -173 18 0 16 -15 -3
-30 -36 -31 -112 -6 -189 62 -44 39 -46 39 -39 14 6 -24 4 -26 -25 -26 -17 0
-48 7 -68 15 -36 15 -39 20 -60 96 -51 180 -153 350 -291 480 -152 144 -269
198 -427 199 -106 0 -150 -17 -208 -77 -21 -22 -49 -66 -62 -99 -15 -36 -26
-53 -29 -44 -76 205 -98 411 -62 580 52 245 250 471 512 585 l79 35 3 -35 c3
-36 22 -50 22 -17 0 39 33 113 62 137 16 14 31 25 34 25 2 0 11 -11 19 -24z
m2340 -1282 c69 -70 205 -154 250 -154 16 0 64 -9 106 -20 53 -13 94 -17 132
-13 68 7 103 -1 117 -27 10 -18 7 -19 -60 -13 -85 7 -93 -8 -12 -25 76 -16
122 -44 122 -76 0 -33 -26 -40 -108 -31 l-66 7 33 -37 c30 -34 51 -74 51 -95
0 -22 -34 -40 -76 -40 -45 0 -158 33 -182 52 -19 16 -23 6 -12 -33 15 -52 12
-75 -13 -105 -19 -22 -29 -26 -50 -20 -44 11 -85 56 -125 135 -32 64 -44 78
-82 98 -110 56 -321 169 -383 205 l-67 39 33 42 c70 87 197 316 197 356 0 8
30 -30 67 -85 37 -54 95 -126 128 -160z m-2586 145 c112 -39 262 -143 334
-231 100 -124 215 -381 248 -556 36 -188 -45 -379 -180 -427 -185 -65 -550 79
-805 319 -27 25 -52 44 -54 41 -9 -8 63 -117 97 -147 l33 -29 -47 -45 c-27
-24 -78 -59 -114 -77 -122 -60 -261 -37 -334 54 -16 21 -31 54 -34 76 -5 36
-1 45 42 98 58 70 90 139 105 224 14 81 48 149 94 188 42 38 82 48 134 33 34
-9 42 -16 53 -48 20 -62 79 -175 116 -220 38 -47 100 -98 109 -89 3 3 -13 29
-35 57 -42 54 -87 140 -116 225 -26 76 -31 254 -10 335 23 91 70 185 104 209
61 44 152 47 260 10z m-469 -266 c14 -9 28 -21 31 -26 5 -7 0 -147 -5 -154 -1
-1 -20 2 -41 8 -101 28 -197 -53 -248 -210 l-22 -70 -33 16 c-39 19 -82 77
-82 111 0 38 27 74 90 119 40 29 73 64 101 108 66 105 145 142 209 98z m1277
-517 l21 -21 -19 -73 c-30 -118 -83 -182 -150 -182 -26 0 -26 1 -18 43 10 53
11 170 0 223 l-8 41 76 -5 c60 -3 80 -9 98 -26z"/>
<path d="M3221 3698 c-37 -18 -91 -73 -91 -91 0 -4 11 -2 24 4 13 6 53 19 88
28 55 14 63 20 63 40 0 36 -34 44 -84 19z"/>
<path d="M3889 3704 c-11 -14 -10 -19 10 -35 13 -11 34 -19 48 -19 16 0 37
-13 59 -37 39 -42 44 -29 14 33 -30 61 -102 93 -131 58z"/>
<path d="M3311 3434 c-45 -57 -53 -154 -15 -195 21 -23 42 -24 72 -3 52 36 73
145 39 198 -23 35 -68 35 -96 0z m57 -130 c3 -34 -17 -58 -41 -48 -40 15 -25
88 16 82 16 -2 23 -11 25 -34z"/>
<path d="M3786 3415 c-13 -14 -29 -46 -35 -71 -34 -134 77 -200 131 -77 49
112 -24 226 -96 148z m55 -116 c22 -42 -18 -88 -49 -57 -13 13 -16 60 -5 71
13 14 43 6 54 -14z"/>
<path d="M3457 3160 c-212 -38 -376 -149 -455 -309 -32 -65 -37 -84 -40 -166
-4 -76 0 -105 17 -156 57 -170 211 -297 421 -350 110 -28 279 -23 380 11 215
72 359 224 390 411 40 236 -145 472 -425 544 -74 19 -224 27 -288 15z m277
-50 c108 -27 190 -74 267 -150 110 -110 153 -235 125 -369 -20 -96 -57 -160
-135 -234 -116 -109 -246 -157 -426 -157 -129 0 -202 17 -307 72 -96 50 -177
132 -221 225 -29 62 -32 76 -32 168 0 92 3 105 32 168 40 85 133 179 220 225
136 71 322 92 477 52z"/>
<path d="M3526 3010 c-171 -44 -141 -181 45 -197 53 -5 60 -9 65 -30 13 -50
-3 -217 -27 -288 -28 -82 -34 -83 -136 -35 -35 16 -63 25 -63 20 0 -14 92 -70
134 -81 66 -18 160 -6 213 27 64 40 66 60 3 27 -30 -15 -74 -28 -105 -31 l-55
-4 24 58 c32 79 50 194 43 270 l-6 62 37 7 c90 15 149 75 125 128 -26 56 -192
93 -297 67z m189 -64 c42 -18 46 -48 10 -64 -42 -19 -139 -15 -166 7 -23 19
-23 20 -5 39 29 33 105 41 161 18z"/>
</g>
</svg>
